<?xml version="1.0" encoding="UTF-8"?><svg id="Original" xmlns="http://www.w3.org/2000/svg" xmlns:xlink="http://www.w3.org/1999/xlink" viewBox="0 0 326.62 276.13"><defs><style>.cls-1{clip-path:url(#clippath-1);}.cls-2{fill:#ff914d;}.cls-2,.cls-3{fill-rule:evenodd;}.cls-4{clip-path:url(#clippath);}.cls-5{fill:none;}.cls-3{fill:#d2d3d5;}</style><clipPath id="clippath"><rect class="cls-5" width="326.62" height="172.2"/></clipPath><clipPath id="clippath-1"><rect class="cls-5" x="116.03" y="224.79" width="82.05" height="51.34"/></clipPath></defs><g class="cls-4"><path class="cls-3" d="m251.77,80c35.13-18.27,63.27-34.62,74.85-43.7-23.66,13.16-49.1,25.48-76.23,36.88-.33.16-.67.27-.99.44-3.92,1.65-7.83,3.25-11.86,4.85-1.93.77-4.19,1.65-6.79,2.64-28.07,10.68-93.01,32.75-140.94,43.15-7.45,1.6-14.46,2.97-20.91,3.91-29.79,4.51-46.39,1.04-29.84-18.88.27-.34.55-.67.82-.99-.44.11-.88.28-1.32.44-21.01,7.26-27.36,39.3,12.63,33.74,7.5-1.1,15.01-2.42,22.45-3.9,7.12-1.43,14.23-2.97,21.29-4.73,33.32-8.15,66.09-19.54,97.42-32.31-7.45,3.36-50.91,23.12-93.61,37.82-7.01,2.42-13.96,4.68-20.69,6.71C35.26,158.99-.21,162.89,12.25,134.22c-32.11,43.48,2.26,43.48,58.69,25.1,4.36-1.43,8.88-2.97,13.46-4.57,5.02-1.76,10.21-3.69,15.45-5.67,1.82-.71,3.69-1.43,5.57-2.14,40.43-15.63,86.44-36.83,126.43-56.92,6.79-3.41,13.41-6.82,19.81-10.12l.12.11Zm-167.42,3.81c5.35-35.4,35.74-62.7,72.48-62.98h.6c27.25,0,51.14,14.48,64.16,36.05,3.42-.99,6.84-2.03,10.21-3.08,3.36-1.04,6.73-2.09,10.09-3.19C225.9,20.55,194.02.02,157.39.02h-.71c-48.44.33-88.21,37.26-93.45,84.38-.22,2.1-.39,4.18-.5,6.33-.05,1.65-.11,3.36-.11,5.01.11,6.61.88,13.16,2.38,19.49,1.71-.16,3.47-.28,5.19-.44,5.07-.49,10.31-1.15,15.61-1.92,40.77-5.89,87.93-19.81,141.55-41.78.22-.11.49-.21.71-.27,3.81-1.55,7.62-3.14,11.53-4.79,2.54-1.1,5.13-2.2,7.73-3.3,20.3-8.8,41.53-18.71,63.6-29.67-23.05,8.75-45.12,16.52-66.2,23.28-3.69,1.22-7.39,2.37-11.03,3.47-3.03.94-6.02,1.87-8.99,2.75-1.44.44-2.81.83-4.25,1.27-51.96,15.3-97.58,24.05-136.75,26.31.16-2.14.39-4.3.67-6.39v.06Z"/></g><path class="cls-2" d="m251.94,99.65c-7.56,5.28-15.23,10.57-22.9,15.75-3.36,11.39-9.43,21.91-17.71,30.38-12.74,13.1-20.96,29.67-23.78,47.67-.21,1.49-1.71,3.03-3.64,3.03h-52.23c-1.6,0-3.37-.88-3.64-2.97-.89-5.67-2.32-11.28-4.31-16.67-.71-1.99-1.55-3.97-2.37-5.89,30.06-13.71,66.69-35.28,109.77-64.62,5.63-3.8,11.31-7.76,17.16-11.83,1.49-1.04,3.03-2.14,4.58-3.2,2.7-1.87,5.41-3.8,8.16-5.78,4.75-3.35,9.55-6.82,14.4-10.35-5.41,3.02-10.7,6-15.89,8.86-2.26,1.27-4.58,2.48-6.84,3.75-1.77.94-3.53,1.92-5.3,2.86-5.23,2.81-10.37,5.56-15.44,8.2-48.54,25.48-89.09,43.48-121.64,53.89-4.91,1.55-9.66,2.97-14.18,4.18-2.76.77-5.46,1.43-8.11,2.04.44.49.89.94,1.32,1.37,5.36,5.51,9.71,12,12.85,18.99.89,1.92,1.66,3.91,2.38,5.89,1.27,3.74,2.26,7.59,2.87,11.5,1.77,12.01,12.02,20.64,24.22,20.64h52.29c11.97,0,22.35-8.86,24.22-20.64,2.1-13.86,8.44-26.41,18.04-36.32,15.94-16.29,25.43-38.42,26.53-61.26-.27.21-.6.38-.88.6l.06-.06Z"/><g class="cls-1"><path class="cls-2" d="m191.25,225.53h-66.91c-3.58,0-6.51,3.2-6.51,7.04v6.77c0,3.85,2.93,7.04,6.51,7.04h66.91c3.58,0,6.51-3.19,6.51-7.04v-6.77c0-3.85-2.93-7.04-6.51-7.04Zm-8.38,29.77h-50.15c-3.58,0-6.51,3.2-6.51,7.05v6.77c0,3.85,2.93,7.04,6.51,7.04h50.15c3.58,0,6.51-3.2,6.51-7.04v-6.77c0-3.85-2.93-7.05-6.51-7.05Z"/></g></svg>