<?xml version="1.0" encoding="UTF-8"?><svg xmlns="http://www.w3.org/2000/svg" xmlns:xlink="http://www.w3.org/1999/xlink" viewBox="0 0 512 512"><defs><style>.cls-1{isolation:isolate;}.cls-2{fill:url(#linear-gradient-2);}.cls-2,.cls-3,.cls-4{fill-rule:evenodd;}.cls-5{fill:url(#linear-gradient);}.cls-5,.cls-6{mix-blend-mode:overlay;}.cls-7{fill:#2f4c69;}.cls-3{fill:#ff914d;}.cls-8{fill:url(#linear-gradient-3);}.cls-4{fill:#d2d3d5;}</style><linearGradient id="linear-gradient" x1="4.18" y1="4.18" x2="515.97" y2="515.97" gradientUnits="userSpaceOnUse"><stop offset="0" stop-color="#fff"/><stop offset="1" stop-color="#000"/></linearGradient><linearGradient id="linear-gradient-2" x1="118.04" y1="70.39" x2="437.63" y2="400.9" gradientUnits="userSpaceOnUse"><stop offset="0" stop-color="#fff"/><stop offset="1" stop-color="#000"/></linearGradient><linearGradient id="linear-gradient-3" x1="69.47" y1="87.53" x2="443.95" y2="427.68" gradientUnits="userSpaceOnUse"><stop offset="0" stop-color="#fff"/><stop offset="1" stop-color="#000"/></linearGradient></defs><g class="cls-1"><g id="Layer_7"><g><circle class="cls-7" cx="256" cy="256" r="240.68"/><circle class="cls-5" cx="256" cy="256" r="240.68"/></g><g><g><path class="cls-4" d="m438.42,143.19c-26.27,14.61-54.5,28.29-84.62,40.94-.36.18-.74.3-1.1.48-4.35,1.83-8.69,3.61-13.16,5.38-2.14.86-4.65,1.83-7.54,2.93-31.16,11.86-103.24,36.36-156.46,47.9-8.27,1.78-16.05,3.3-23.21,4.34-33.07,5.01-51.5,1.16-33.13-20.96.3-.37.61-.74.91-1.1-.48.12-.98.31-1.47.49-23.33,8.06-30.37,43.63,14.02,37.45,8.33-1.22,16.66-2.68,24.92-4.33,7.9-1.59,15.8-3.3,23.64-5.25,36.99-9.05,73.37-21.69,108.14-35.87-8.27,3.73-56.52,25.66-103.91,41.98-7.78,2.68-15.5,5.19-22.97,7.45-47.51,14.36-86.89,18.69-73.05-13.14-35.64,48.27,2.51,48.27,65.15,27.86,4.84-1.59,9.86-3.3,14.94-5.07,5.57-1.95,11.33-4.1,17.15-6.29,2.02-.79,4.1-1.59,6.19-2.38,44.89-17.35,95.96-40.88,140.35-63.19,7.54-3.79,92.35-49.55,105.21-59.64Zm-268.95,52.74c5.94-39.29,39.68-69.6,80.46-69.91h.67c30.25,0,56.77,16.07,71.22,40.02,3.8-1.09,7.59-2.25,11.33-3.42,3.73-1.16,7.47-2.32,11.2-3.54-17.75-33.36-53.15-56.15-93.81-56.15h-.79c-53.77.36-97.93,41.36-103.74,93.67-.25,2.33-.43,4.64-.56,7.02-.05,1.83-.12,3.73-.12,5.57.12,7.33.98,14.61,2.64,21.63,1.9-.18,3.85-.31,5.76-.49,5.63-.55,11.45-1.28,17.32-2.13,45.26-6.54,97.62-22,157.13-46.38.25-.12.55-.24.79-.3,4.22-1.72,8.46-3.48,12.8-5.32,2.82-1.22,5.69-2.44,8.58-3.67,22.53-9.77,46.11-20.77,70.6-32.93-25.59,9.72-50.09,18.34-73.49,25.85-4.1,1.35-8.2,2.63-12.24,3.85-3.37,1.04-6.68,2.08-9.98,3.06-1.6.49-3.12.92-4.72,1.4-57.68,16.99-108.33,26.7-151.81,29.21.18-2.38.43-4.77.74-7.09v.06Z"/><g class="cls-6"><path class="cls-2" d="m438.42,143.19c-26.27,14.61-54.5,28.29-84.62,40.94-.36.18-.74.3-1.1.48-4.35,1.83-8.69,3.61-13.16,5.38-2.14.86-4.65,1.83-7.54,2.93-31.16,11.86-103.24,36.36-156.46,47.9-8.27,1.78-16.05,3.3-23.21,4.34-33.07,5.01-51.5,1.16-33.13-20.96.3-.37.61-.74.91-1.1-.48.12-.98.31-1.47.49-23.33,8.06-30.37,43.63,14.02,37.45,8.33-1.22,16.66-2.68,24.92-4.33,7.9-1.59,15.8-3.3,23.64-5.25,36.99-9.05,73.37-21.69,108.14-35.87-8.27,3.73-56.52,25.66-103.91,41.98-7.78,2.68-15.5,5.19-22.97,7.45-47.51,14.36-86.89,18.69-73.05-13.14-35.64,48.27,2.51,48.27,65.15,27.86,4.84-1.59,9.86-3.3,14.94-5.07,5.57-1.95,11.33-4.1,17.15-6.29,2.02-.79,4.1-1.59,6.19-2.38,44.89-17.35,95.96-40.88,140.35-63.19,7.54-3.79,92.35-49.55,105.21-59.64Zm-268.95,52.74c5.94-39.29,39.68-69.6,80.46-69.91h.67c30.25,0,56.77,16.07,71.22,40.02,3.8-1.09,7.59-2.25,11.33-3.42,3.73-1.16,7.47-2.32,11.2-3.54-17.75-33.36-53.15-56.15-93.81-56.15h-.79c-53.77.36-97.93,41.36-103.74,93.67-.25,2.33-.43,4.64-.56,7.02-.05,1.83-.12,3.73-.12,5.57.12,7.33.98,14.61,2.64,21.63,1.9-.18,3.85-.31,5.76-.49,5.63-.55,11.45-1.28,17.32-2.13,45.26-6.54,97.62-22,157.13-46.38.25-.12.55-.24.79-.3,4.22-1.72,8.46-3.48,12.8-5.32,2.82-1.22,5.69-2.44,8.58-3.67,22.53-9.77,46.11-20.77,70.6-32.93-25.59,9.72-50.09,18.34-73.49,25.85-4.1,1.35-8.2,2.63-12.24,3.85-3.37,1.04-6.68,2.08-9.98,3.06-1.6.49-3.12.92-4.72,1.4-57.68,16.99-108.33,26.7-151.81,29.21.18-2.38.43-4.77.74-7.09v.06Z"/></g></g><g><g><path class="cls-3" d="m355.51,213.52c-8.39,5.87-16.9,11.73-25.42,17.48-3.73,12.64-10.47,24.32-19.66,33.73-14.14,14.54-23.26,32.93-26.39,52.91-.24,1.65-1.9,3.37-4.04,3.37h-57.99c-1.78,0-3.74-.98-4.04-3.3-.99-6.29-2.57-12.53-4.78-18.51-.79-2.21-1.72-4.41-2.63-6.54,33.37-15.22,74.03-39.17,121.86-71.73,6.25-4.21,12.55-8.61,19.05-13.14,1.65-1.16,3.37-2.38,5.08-3.55,3-2.07,6-4.21,9.06-6.41,5.27-3.72,10.6-7.57,15.98-11.49-6,3.36-11.88,6.66-17.63,9.83-2.51,1.4-5.08,2.76-7.59,4.16-1.96,1.04-3.92,2.13-5.88,3.17-5.81,3.12-11.51,6.18-17.14,9.1-53.89,28.29-98.9,48.27-135.03,59.82-5.45,1.72-10.72,3.3-15.74,4.64-3.07.86-6.06,1.59-9,2.26.49.55.99,1.04,1.47,1.52,5.95,6.11,10.78,13.32,14.27,21.08.99,2.13,1.84,4.34,2.64,6.54,1.4,4.15,2.51,8.43,3.18,12.76,1.96,13.33,13.35,22.92,26.89,22.92h58.05c13.29,0,24.81-9.83,26.89-22.92,2.33-15.39,9.37-29.32,20.02-40.32,17.7-18.08,28.23-42.65,29.45-68-.3.24-.67.42-.98.67l.06-.06Z"/><path class="cls-3" d="m288.14,353.27h-74.28c-3.98,0-7.23,3.55-7.23,7.82v7.52c0,4.28,3.25,7.82,7.23,7.82h74.28c3.98,0,7.23-3.54,7.23-7.82v-7.52c0-4.27-3.25-7.82-7.23-7.82Zm-9.31,33.05h-55.67c-3.98,0-7.23,3.55-7.23,7.83v7.52c0,4.27,3.25,7.82,7.23,7.82h55.67c3.98,0,7.23-3.55,7.23-7.82v-7.52c0-4.28-3.25-7.83-7.23-7.83Z"/></g><g class="cls-6"><path class="cls-8" d="m355.51,213.52c-8.39,5.87-16.9,11.73-25.42,17.48-3.73,12.64-10.47,24.32-19.66,33.73-14.14,14.54-23.26,32.93-26.39,52.91-.24,1.65-1.9,3.37-4.04,3.37h-57.99c-1.78,0-3.74-.98-4.04-3.3-.99-6.29-2.57-12.53-4.78-18.51-.79-2.21-1.72-4.41-2.63-6.54,33.37-15.22,74.03-39.17,121.86-71.73,6.25-4.21,12.55-8.61,19.05-13.14,1.65-1.16,3.37-2.38,5.08-3.55,3-2.07,6-4.21,9.06-6.41,5.27-3.72,10.6-7.57,15.98-11.49-6,3.36-11.88,6.66-17.63,9.83-2.51,1.4-5.08,2.76-7.59,4.16-1.96,1.04-3.92,2.13-5.88,3.17-5.81,3.12-11.51,6.18-17.14,9.1-53.89,28.29-98.9,48.27-135.03,59.82-5.45,1.72-10.72,3.3-15.74,4.64-3.07.86-6.06,1.59-9,2.26.49.55.99,1.04,1.47,1.52,5.95,6.11,10.78,13.32,14.27,21.08.99,2.13,1.84,4.34,2.64,6.54,1.4,4.15,2.51,8.43,3.18,12.76,1.96,13.33,13.35,22.92,26.89,22.92h58.05c13.29,0,24.81-9.83,26.89-22.92,2.33-15.39,9.37-29.32,20.02-40.32,17.7-18.08,28.23-42.65,29.45-68-.3.24-.67.42-.98.67l.06-.06Z"/><path class="cls-8" d="m288.14,353.27h-74.28c-3.98,0-7.23,3.55-7.23,7.82v7.52c0,4.28,3.25,7.82,7.23,7.82h74.28c3.98,0,7.23-3.54,7.23-7.82v-7.52c0-4.27-3.25-7.82-7.23-7.82Zm-9.31,33.05h-55.67c-3.98,0-7.23,3.55-7.23,7.83v7.52c0,4.27,3.25,7.82,7.23,7.82h55.67c3.98,0,7.23-3.55,7.23-7.82v-7.52c0-4.28-3.25-7.83-7.23-7.83Z"/></g></g></g></g></g></svg>