<?xml version="1.0" encoding="UTF-8"?><svg xmlns="http://www.w3.org/2000/svg" xmlns:xlink="http://www.w3.org/1999/xlink" viewBox="0 0 512 512"><defs><style>.cls-1{fill:url(#linear-gradient-2);}.cls-2{isolation:isolate;}.cls-3{fill:url(#linear-gradient);}.cls-3,.cls-4,.cls-5{fill-rule:evenodd;}.cls-4{fill:#ff914d;}.cls-6{mix-blend-mode:overlay;}.cls-5{fill:#d2d3d5;}</style><linearGradient id="linear-gradient" x1="64.2" y1="-.19" x2="504.91" y2="455.58" gradientUnits="userSpaceOnUse"><stop offset="0" stop-color="#fff"/><stop offset="1" stop-color="#000"/></linearGradient><linearGradient id="linear-gradient-2" x1="-2.77" y1="23.45" x2="513.63" y2="492.51" gradientUnits="userSpaceOnUse"><stop offset="0" stop-color="#fff"/><stop offset="1" stop-color="#000"/></linearGradient></defs><g class="cls-2"><g id="Layer_4"><g><g><path class="cls-5" d="m506,100.2c-36.22,20.14-75.16,39.01-116.7,56.46-.5.25-1.02.42-1.52.67-6,2.53-11.99,4.98-18.15,7.42-2.96,1.18-6.42,2.53-10.39,4.04-42.98,16.35-142.37,50.13-215.76,66.06-11.4,2.45-22.13,4.55-32,5.99-45.6,6.91-71.02,1.6-45.68-28.9.42-.52.84-1.02,1.26-1.52-.67.16-1.35.43-2.03.68-32.17,11.12-41.88,60.16,19.34,51.64,11.49-1.69,22.97-3.7,34.37-5.98,10.89-2.19,21.79-4.55,32.6-7.25,51.01-12.48,101.17-29.92,149.13-49.47-11.4,5.15-77.94,35.39-143.29,57.9-10.73,3.7-21.37,7.16-31.68,10.28-65.52,19.8-119.82,25.78-100.73-18.12-49.15,66.56,3.46,66.56,89.84,38.42,6.68-2.19,13.6-4.55,20.61-6.99,7.69-2.69,15.62-5.65,23.65-8.68,2.78-1.09,5.65-2.19,8.53-3.28,61.9-23.93,132.32-56.37,193.54-87.13,10.39-5.22,127.35-68.32,145.08-82.24Zm-370.87,72.73c8.19-54.18,54.71-95.98,110.96-96.4h.92c41.72,0,78.29,22.17,98.22,55.19,5.23-1.51,10.47-3.11,15.63-4.72,5.15-1.6,10.3-3.2,15.45-4.88-24.48-46.01-73.29-77.43-129.37-77.43h-1.09c-74.15.5-135.04,57.04-143.05,129.16-.34,3.21-.59,6.4-.77,9.69-.08,2.53-.16,5.15-.16,7.67.16,10.11,1.35,20.14,3.64,29.83,2.62-.25,5.31-.43,7.94-.68,7.76-.75,15.79-1.76,23.89-2.94,62.41-9.02,134.61-30.33,216.69-63.96.34-.16.75-.33,1.09-.42,5.82-2.37,11.66-4.81,17.65-7.33,3.89-1.69,7.85-3.37,11.83-5.06,31.07-13.47,63.58-28.65,97.36-45.42-35.29,13.4-69.07,25.29-101.34,35.64-5.65,1.86-11.31,3.62-16.88,5.31-4.64,1.43-9.21,2.87-13.76,4.21-2.2.68-4.3,1.27-6.5,1.94-79.55,23.42-149.38,36.82-209.34,40.28.25-3.28.59-6.58,1.02-9.78v.09Z"/><g class="cls-6"><path class="cls-3" d="m506,100.2c-36.22,20.14-75.16,39.01-116.7,56.46-.5.25-1.02.42-1.52.67-6,2.53-11.99,4.98-18.15,7.42-2.96,1.18-6.42,2.53-10.39,4.04-42.98,16.35-142.37,50.13-215.76,66.06-11.4,2.45-22.13,4.55-32,5.99-45.6,6.91-71.02,1.6-45.68-28.9.42-.52.84-1.02,1.26-1.52-.67.16-1.35.43-2.03.68-32.17,11.12-41.88,60.16,19.34,51.64,11.49-1.69,22.97-3.7,34.37-5.98,10.89-2.19,21.79-4.55,32.6-7.25,51.01-12.48,101.17-29.92,149.13-49.47-11.4,5.15-77.94,35.39-143.29,57.9-10.73,3.7-21.37,7.16-31.68,10.28-65.52,19.8-119.82,25.78-100.73-18.12-49.15,66.56,3.46,66.56,89.84,38.42,6.68-2.19,13.6-4.55,20.61-6.99,7.69-2.69,15.62-5.65,23.65-8.68,2.78-1.09,5.65-2.19,8.53-3.28,61.9-23.93,132.32-56.37,193.54-87.13,10.39-5.22,127.35-68.32,145.08-82.24Zm-370.87,72.73c8.19-54.18,54.71-95.98,110.96-96.4h.92c41.72,0,78.29,22.17,98.22,55.19,5.23-1.51,10.47-3.11,15.63-4.72,5.15-1.6,10.3-3.2,15.45-4.88-24.48-46.01-73.29-77.43-129.37-77.43h-1.09c-74.15.5-135.04,57.04-143.05,129.16-.34,3.21-.59,6.4-.77,9.69-.08,2.53-.16,5.15-.16,7.67.16,10.11,1.35,20.14,3.64,29.83,2.62-.25,5.31-.43,7.94-.68,7.76-.75,15.79-1.76,23.89-2.94,62.41-9.02,134.61-30.33,216.69-63.96.34-.16.75-.33,1.09-.42,5.82-2.37,11.66-4.81,17.65-7.33,3.89-1.69,7.85-3.37,11.83-5.06,31.07-13.47,63.58-28.65,97.36-45.42-35.29,13.4-69.07,25.29-101.34,35.64-5.65,1.86-11.31,3.62-16.88,5.31-4.64,1.43-9.21,2.87-13.76,4.21-2.2.68-4.3,1.27-6.5,1.94-79.55,23.42-149.38,36.82-209.34,40.28.25-3.28.59-6.58,1.02-9.78v.09Z"/></g></g><g><g><path class="cls-4" d="m391.67,197.19c-11.57,8.09-23.31,16.18-35.05,24.1-5.15,17.44-14.44,33.54-27.11,46.51-19.5,20.05-32.08,45.42-36.4,72.97-.33,2.28-2.62,4.64-5.57,4.64h-79.96c-2.45,0-5.16-1.35-5.57-4.55-1.36-8.68-3.55-17.27-6.59-25.53-1.09-3.04-2.37-6.08-3.62-9.02,46.02-20.98,102.09-54.01,168.04-98.92,8.62-5.81,17.31-11.88,26.27-18.12,2.28-1.6,4.64-3.28,7.01-4.89,4.14-2.86,8.28-5.81,12.49-8.84,7.27-5.13,14.62-10.44,22.04-15.84-8.28,4.63-16.38,9.18-24.32,13.56-3.46,1.94-7.01,3.8-10.47,5.74-2.7,1.43-5.41,2.94-8.11,4.38-8.01,4.3-15.88,8.52-23.64,12.56-74.31,39.01-136.39,66.56-186.2,82.49-7.51,2.37-14.78,4.55-21.7,6.4-4.23,1.18-8.35,2.19-12.42,3.12.68.75,1.36,1.43,2.03,2.1,8.2,8.43,14.87,18.37,19.68,29.07,1.36,2.94,2.54,5.99,3.64,9.02,1.94,5.72,3.46,11.62,4.39,17.6,2.7,18.38,18.41,31.6,37.07,31.6h80.05c18.33,0,34.21-13.56,37.07-31.6,3.21-21.22,12.92-40.43,27.61-55.61,24.41-24.93,38.92-58.81,40.61-93.78-.42.33-.92.58-1.35.92l.09-.09Z"/><path class="cls-4" d="m298.77,389.89h-102.43c-5.49,0-9.96,4.89-9.96,10.78v10.37c0,5.9,4.48,10.78,9.96,10.78h102.43c5.49,0,9.96-4.88,9.96-10.78v-10.37c0-5.89-4.48-10.78-9.96-10.78Zm-12.83,45.58h-76.77c-5.49,0-9.96,4.89-9.96,10.79v10.37c0,5.89,4.48,10.78,9.96,10.78h76.77c5.49,0,9.96-4.89,9.96-10.78v-10.37c0-5.9-4.48-10.79-9.96-10.79Z"/></g><g class="cls-6"><path class="cls-1" d="m391.67,197.19c-11.57,8.09-23.31,16.18-35.05,24.1-5.15,17.44-14.44,33.54-27.11,46.51-19.5,20.05-32.08,45.42-36.4,72.97-.33,2.28-2.62,4.64-5.57,4.64h-79.96c-2.45,0-5.16-1.35-5.57-4.55-1.36-8.68-3.55-17.27-6.59-25.53-1.09-3.04-2.37-6.08-3.62-9.02,46.02-20.98,102.09-54.01,168.04-98.92,8.62-5.81,17.31-11.88,26.27-18.12,2.28-1.6,4.64-3.28,7.01-4.89,4.14-2.86,8.28-5.81,12.49-8.84,7.27-5.13,14.62-10.44,22.04-15.84-8.28,4.63-16.38,9.18-24.32,13.56-3.46,1.94-7.01,3.8-10.47,5.74-2.7,1.43-5.41,2.94-8.11,4.38-8.01,4.3-15.88,8.52-23.64,12.56-74.31,39.01-136.39,66.56-186.2,82.49-7.51,2.37-14.78,4.55-21.7,6.4-4.23,1.18-8.35,2.19-12.42,3.12.68.75,1.36,1.43,2.03,2.1,8.2,8.43,14.87,18.37,19.68,29.07,1.36,2.94,2.54,5.99,3.64,9.02,1.94,5.72,3.46,11.62,4.39,17.6,2.7,18.38,18.41,31.6,37.07,31.6h80.05c18.33,0,34.21-13.56,37.07-31.6,3.21-21.22,12.92-40.43,27.61-55.61,24.41-24.93,38.92-58.81,40.61-93.78-.42.33-.92.58-1.35.92l.09-.09Z"/><path class="cls-1" d="m298.77,389.89h-102.43c-5.49,0-9.96,4.89-9.96,10.78v10.37c0,5.9,4.48,10.78,9.96,10.78h102.43c5.49,0,9.96-4.88,9.96-10.78v-10.37c0-5.89-4.48-10.78-9.96-10.78Zm-12.83,45.58h-76.77c-5.49,0-9.96,4.89-9.96,10.79v10.37c0,5.89,4.48,10.78,9.96,10.78h76.77c5.49,0,9.96-4.89,9.96-10.78v-10.37c0-5.9-4.48-10.79-9.96-10.79Z"/></g></g></g></g></g></svg>